<svg xmlns="http://www.w3.org/2000/svg" viewBox="0 0 400 400" fill="none">
<path d="M 214.2 200.0 C 214.7 201.7 214.0 203.8 213.3 205.5 C 212.6 207.2 211.5 209.4 210.0 210.0 C 208.4 210.5 205.4 208.6 203.8 209.1 C 202.1 209.5 201.4 212.2 200.0 212.5 C 198.6 212.8 197.0 211.4 195.6 210.7 C 194.1 210.1 192.2 209.7 191.4 208.6 C 190.6 207.5 191.0 205.3 190.7 203.8 C 190.4 202.4 189.9 201.4 189.6 200.0 C 189.4 198.6 188.7 196.8 189.2 195.5 C 189.7 194.3 191.5 193.6 192.6 192.6 C 193.6 191.5 194.3 189.5 195.5 189.1 C 196.7 188.8 198.6 190.2 200.0 190.5 C 201.4 190.8 202.2 190.9 203.8 190.9 C 205.3 191.0 208.1 190.0 209.3 190.7 C 210.4 191.5 209.9 194.0 210.7 195.6 C 211.5 197.1 213.8 198.3 214.2 200.0 Z" stroke="#B18750" stroke-width="2"/>
<path d="M 224.4 200.0 C 223.5 203.2 221.9 206.1 220.1 208.3 C 218.2 210.5 215.1 210.8 213.4 213.4 C 211.7 216.0 212.0 222.5 209.8 223.7 C 207.6 224.9 203.0 221.5 200.0 220.9 C 197.0 220.2 194.5 220.5 191.8 219.8 C 189.1 219.0 186.4 217.9 183.8 216.2 C 181.2 214.5 178.6 212.5 176.4 209.8 C 174.2 207.1 170.4 203.1 170.7 200.0 C 171.0 196.9 176.8 194.4 178.2 191.0 C 179.6 187.5 177.5 182.3 179.3 179.3 C 181.0 176.3 185.3 173.0 188.8 172.9 C 192.2 172.8 196.9 177.2 200.0 178.8 C 203.1 180.3 205.0 180.9 207.4 182.1 C 209.8 183.2 211.4 184.4 214.4 185.6 C 217.4 186.8 223.9 187.0 225.6 189.4 C 227.2 191.8 225.3 196.8 224.4 200.0 Z" stroke="#B18750" stroke-width="2"/>
<path d="M 239.0 200.0 C 238.1 204.1 229.1 206.7 227.0 211.2 C 225.0 215.7 228.7 222.3 226.8 226.8 C 225.0 231.4 220.4 236.0 215.9 238.5 C 211.5 240.9 205.0 242.3 200.0 241.5 C 195.0 240.7 190.6 235.9 186.1 233.5 C 181.6 231.1 175.9 230.4 173.0 227.0 C 170.1 223.6 170.3 217.4 168.7 213.0 C 167.2 208.5 162.9 204.0 163.5 200.0 C 164.2 196.0 171.2 193.3 172.7 188.7 C 174.2 184.1 170.3 176.3 172.4 172.4 C 174.6 168.5 181.0 166.0 185.6 165.2 C 190.2 164.4 195.4 167.0 200.0 167.6 C 204.6 168.2 208.3 167.9 213.0 168.6 C 217.7 169.3 225.0 168.8 228.2 171.8 C 231.4 174.8 230.6 181.9 232.4 186.6 C 234.2 191.3 239.9 195.9 239.0 200.0 Z" stroke="#B18750" stroke-width="2"/>
<path d="M 246.0 200.0 C 246.7 205.9 246.3 212.1 245.2 218.7 C 244.2 225.3 244.6 236.5 239.7 239.7 C 234.7 242.8 222.2 237.3 215.6 237.7 C 209.0 238.0 205.0 242.4 200.0 241.8 C 195.0 241.3 190.3 236.9 185.7 234.6 C 181.0 232.3 175.4 231.3 172.1 227.9 C 168.8 224.5 167.9 218.8 165.8 214.2 C 163.7 209.5 161.4 205.4 159.7 200.0 C 157.9 194.6 155.6 188.5 155.4 181.5 C 155.1 174.6 154.2 163.3 158.3 158.3 C 162.4 153.3 173.0 152.2 180.0 151.7 C 186.9 151.1 193.7 153.7 200.0 154.7 C 206.3 155.7 211.4 156.2 217.6 157.6 C 223.7 159.0 233.1 158.8 237.0 163.0 C 240.8 167.3 239.3 177.0 240.7 183.1 C 242.2 189.3 245.2 194.1 246.0 200.0 Z" stroke="#B18750" stroke-width="2"/>
<path d="M 252.7 200.0 C 253.1 207.5 258.3 217.0 255.5 223.0 C 252.6 228.9 240.4 228.8 235.6 235.6 C 230.8 242.4 232.4 261.1 226.5 263.9 C 220.5 266.7 208.3 253.5 200.0 252.3 C 191.7 251.2 185.0 257.0 176.5 256.8 C 168.0 256.6 153.8 256.9 149.0 251.0 C 144.1 245.2 151.0 230.3 147.3 221.8 C 143.6 213.3 128.1 207.9 126.7 200.0 C 125.2 192.1 133.5 181.7 138.5 174.5 C 143.5 167.3 150.4 162.2 156.6 156.6 C 162.8 151.0 168.4 144.3 175.6 141.2 C 182.9 138.0 192.4 136.4 200.0 137.5 C 207.6 138.7 212.7 146.6 221.4 148.2 C 230.2 149.9 247.2 142.6 252.4 147.6 C 257.7 152.5 252.9 169.3 252.9 178.1 C 252.9 186.8 252.3 192.5 252.7 200.0 Z" stroke="#B18750" stroke-width="2"/>
<path d="M 274.8 200.0 C 273.4 208.5 260.4 214.6 257.0 223.6 C 253.6 232.7 258.3 244.9 254.4 254.4 C 250.5 264.0 242.6 280.6 233.5 280.9 C 224.4 281.2 210.1 258.7 200.0 256.0 C 189.9 253.3 181.0 266.3 173.1 264.9 C 165.2 263.4 158.2 254.0 152.7 247.3 C 147.2 240.6 146.6 232.6 140.3 224.7 C 134.0 216.8 118.5 209.8 114.9 200.0 C 111.2 190.2 114.0 176.0 118.5 166.2 C 122.9 156.5 132.4 146.6 141.6 141.6 C 150.8 136.6 163.8 140.5 173.5 136.1 C 183.3 131.7 191.9 113.4 200.0 115.0 C 208.1 116.7 213.8 140.5 222.3 146.2 C 230.7 151.9 243.4 144.9 250.7 149.3 C 257.9 153.8 261.5 164.4 265.6 172.8 C 269.6 181.3 276.2 191.5 274.8 200.0 Z" stroke="#B18750" stroke-width="2"/>
<path d="M 280.5 200.0 C 281.6 209.1 271.3 217.2 269.5 228.8 C 267.7 240.4 275.9 261.7 269.5 269.5 C 263.1 277.3 242.8 272.8 231.3 275.5 C 219.7 278.1 210.7 284.5 200.0 285.2 C 189.3 285.9 176.2 284.7 167.0 279.6 C 157.9 274.5 153.6 262.2 145.3 254.7 C 137.0 247.1 124.7 243.5 117.1 234.4 C 109.4 225.2 95.8 210.0 99.4 200.0 C 103.1 190.0 132.2 184.8 138.8 174.6 C 145.3 164.4 133.3 146.0 138.8 138.8 C 144.3 131.6 161.4 136.3 171.6 131.4 C 181.8 126.5 189.6 111.8 200.0 109.6 C 210.4 107.3 226.4 110.3 234.1 117.7 C 241.8 125.1 241.3 144.5 246.1 153.9 C 250.9 163.3 257.1 166.3 262.8 174.0 C 268.5 181.7 279.4 190.9 280.5 200.0 Z" stroke="#B18750" stroke-width="2"/>
<path d="M 275.5 200.0 C 278.2 211.7 291.4 224.4 292.9 238.5 C 294.4 252.6 294.4 277.3 284.5 284.5 C 274.7 291.8 248.0 279.5 233.9 281.8 C 219.8 284.0 211.4 297.9 200.0 298.1 C 188.6 298.3 178.3 286.8 165.6 283.1 C 152.9 279.4 134.4 283.2 124.0 276.0 C 113.5 268.9 107.2 252.8 103.1 240.2 C 98.9 227.5 101.4 214.3 99.2 200.0 C 97.1 185.7 85.8 167.0 90.1 154.5 C 94.5 142.0 112.5 131.2 125.2 125.2 C 137.9 119.2 153.7 120.9 166.2 118.3 C 178.6 115.7 187.8 111.9 200.0 109.8 C 212.2 107.6 226.8 102.7 239.2 105.4 C 251.6 108.0 268.2 115.1 274.4 125.6 C 280.6 136.1 276.2 156.0 276.3 168.4 C 276.5 180.8 272.7 188.3 275.5 200.0 Z" stroke="#B18750" stroke-width="2"/>
<path d="M 288.4 200.0 C 288.2 212.8 296.3 227.6 292.1 238.2 C 287.9 248.7 272.6 255.1 263.2 263.2 C 253.9 271.3 246.5 277.6 236.0 286.8 C 225.4 296.1 211.7 319.4 200.0 318.6 C 188.3 317.8 177.7 290.2 165.9 282.2 C 154.2 274.2 137.9 278.4 129.4 270.6 C 121.0 262.7 126.1 246.8 115.5 235.0 C 104.9 223.3 68.3 212.7 65.8 200.0 C 63.4 187.3 89.8 170.3 100.7 158.9 C 111.5 147.4 121.1 140.1 131.1 131.1 C 141.1 122.1 149.1 114.3 160.6 104.8 C 172.1 95.3 187.0 73.6 200.0 73.9 C 213.0 74.3 223.7 100.7 238.5 107.0 C 253.3 113.2 279.5 102.2 288.8 111.2 C 298.0 120.3 293.8 146.4 293.8 161.2 C 293.7 175.9 288.7 187.2 288.4 200.0 Z" stroke="#B18750" stroke-width="2"/>
<path d="M 338.2 200.0 C 332.9 213.8 290.3 218.1 283.9 234.7 C 277.5 251.4 306.8 288.8 299.7 299.7 C 292.7 310.7 258.2 302.0 241.6 300.4 C 224.9 298.7 212.9 292.0 200.0 289.6 C 187.1 287.2 178.5 286.9 164.3 286.1 C 150.2 285.3 128.8 291.1 115.0 285.0 C 101.3 278.8 90.7 263.2 81.6 249.1 C 72.4 234.9 61.8 217.1 60.0 200.0 C 58.2 182.9 58.8 157.7 70.9 146.5 C 83.0 135.3 120.2 145.7 132.7 132.7 C 145.1 119.6 134.2 72.8 145.4 68.2 C 156.6 63.6 182.0 104.8 200.0 105.2 C 218.0 105.6 239.7 68.8 253.5 70.7 C 267.4 72.7 272.8 103.3 283.1 116.9 C 293.4 130.5 306.3 138.3 315.5 152.1 C 324.7 166.0 343.4 186.2 338.2 200.0 Z" stroke="#B18750" stroke-width="2"/>
<path d="M 360.7 200.0 C 359.0 217.5 332.3 234.3 321.6 250.4 C 310.9 266.5 309.1 286.2 296.6 296.6 C 284.1 306.9 262.7 311.1 246.6 312.5 C 230.5 313.9 215.5 305.0 200.0 305.1 C 184.5 305.1 166.2 317.3 153.3 312.6 C 140.5 308.0 131.3 289.3 122.8 277.2 C 114.3 265.2 107.6 253.3 102.4 240.4 C 97.2 227.6 90.7 213.1 91.6 200.0 C 92.6 186.9 106.1 177.9 108.1 161.9 C 110.2 145.9 95.4 113.9 104.0 104.0 C 112.6 94.1 143.7 110.0 159.6 102.6 C 175.6 95.2 185.4 62.2 200.0 59.5 C 214.6 56.8 228.1 82.0 247.0 86.6 C 265.9 91.1 299.2 76.8 313.4 86.6 C 327.5 96.4 324.1 126.4 332.0 145.3 C 339.9 164.2 362.5 182.5 360.7 200.0 Z" stroke="#B18750" stroke-width="2"/>
<path d="M 316.6 200.0 C 312.9 219.5 329.8 234.3 329.8 253.8 C 329.8 273.2 328.1 301.0 316.6 316.6 C 305.2 332.3 280.6 340.2 261.2 347.7 C 241.7 355.3 219.1 365.2 200.0 361.9 C 180.9 358.7 166.6 335.6 146.9 328.3 C 127.2 321.0 95.5 330.3 81.8 318.2 C 68.1 306.2 63.5 275.8 64.6 256.1 C 65.7 236.4 87.5 218.3 88.5 200.0 C 89.4 181.7 64.4 159.0 70.1 146.2 C 75.8 133.3 112.6 141.2 122.9 122.9 C 133.2 104.5 119.2 52.9 132.1 36.0 C 144.9 19.1 180.3 14.3 200.0 21.4 C 219.7 28.6 235.0 64.2 250.2 78.7 C 265.5 93.2 274.4 98.9 291.4 108.6 C 308.4 118.3 348.0 121.7 352.2 137.0 C 356.4 152.2 320.3 180.5 316.6 200.0 Z" stroke="#B18750" stroke-width="2"/>
<path d="M 334.4 200.0 C 339.6 218.6 349.8 239.2 350.5 262.3 C 351.2 285.5 353.0 323.0 338.7 338.7 C 324.5 354.4 288.0 353.9 264.8 356.5 C 241.7 359.2 219.7 359.1 200.0 354.5 C 180.3 349.9 161.3 340.1 146.5 329.1 C 131.8 318.1 133.1 297.4 111.5 288.5 C 89.8 279.7 31.5 290.7 16.7 275.9 C 1.8 261.2 12.5 221.3 22.4 200.0 C 32.2 178.7 65.2 167.8 75.5 148.4 C 85.8 129.1 74.3 102.2 84.0 84.0 C 93.7 65.8 114.2 51.9 133.5 39.5 C 152.8 27.0 180.2 3.8 200.0 9.4 C 219.8 15.0 236.0 57.9 252.5 73.1 C 269.1 88.4 287.9 88.0 299.1 100.9 C 310.2 113.8 313.6 134.0 319.5 150.5 C 325.4 167.0 329.3 181.4 334.4 200.0 Z" stroke="#B18750" stroke-width="2"/>
<path d="M 343.9 200.0 C 332.4 221.4 323.0 228.3 320.6 250.0 C 318.3 271.6 340.6 315.9 329.7 329.7 C 318.8 343.6 276.8 324.8 255.1 333.1 C 233.5 341.4 217.8 380.9 200.0 379.6 C 182.2 378.3 173.1 330.3 148.1 325.4 C 123.0 320.5 69.3 359.6 49.5 350.5 C 29.8 341.3 29.5 295.6 29.8 270.5 C 30.0 245.4 42.4 219.9 51.2 200.0 C 59.9 180.1 81.0 174.8 82.3 151.3 C 83.6 127.8 52.5 82.4 59.0 59.0 C 65.5 35.5 98.0 12.5 121.5 10.6 C 145.0 8.6 178.5 35.8 200.0 47.1 C 221.5 58.5 225.2 78.2 250.3 78.7 C 275.3 79.1 327.1 42.6 350.3 49.7 C 373.4 56.9 390.2 96.6 389.2 121.7 C 388.1 146.7 355.3 178.6 343.9 200.0 Z" stroke="#B18750" stroke-width="2"/>
</svg>