<svg xmlns="http://www.w3.org/2000/svg" viewBox="0 0 1200 700" fill="none" preserveAspectRatio="xMidYMid slice">
<path d="M 355.6 260.0 C 355.3 264.0 355.1 267.6 353.9 271.5 C 352.7 275.3 351.4 280.8 348.4 283.1 C 345.4 285.3 339.8 284.7 335.7 285.1 C 331.7 285.5 327.9 286.1 324.2 285.4 C 320.5 284.7 315.9 283.4 313.3 280.9 C 310.8 278.4 310.5 273.6 308.9 270.1 C 307.4 266.7 304.5 263.6 303.9 260.0 C 303.3 256.4 304.2 252.0 305.6 248.3 C 307.0 244.5 309.0 239.5 312.3 237.8 C 315.5 236.0 321.1 238.2 325.0 237.9 C 328.8 237.7 332.2 235.5 335.4 236.2 C 338.6 237.0 340.7 240.4 344.1 242.3 C 347.5 244.2 353.8 244.7 355.7 247.6 C 357.7 250.5 355.9 256.0 355.6 260.0 Z" stroke="#B18750" stroke-width="1.6" vector-effect="non-scaling-stroke"/>
<path d="M 376.6 260.0 C 376.3 268.1 382.0 277.3 379.3 283.8 C 376.7 290.2 367.2 294.8 360.7 298.5 C 354.2 302.1 347.5 303.7 340.4 305.7 C 333.4 307.7 325.6 311.4 318.5 310.5 C 311.3 309.7 303.5 305.3 297.6 300.6 C 291.8 295.9 286.6 289.2 283.5 282.4 C 280.3 275.7 278.2 267.2 278.7 260.0 C 279.3 252.8 283.2 245.4 286.8 239.2 C 290.3 232.9 295.0 228.1 300.2 222.6 C 305.3 217.1 310.9 207.9 317.7 206.1 C 324.5 204.4 333.1 210.4 340.9 212.2 C 348.7 214.0 357.5 213.2 364.3 217.0 C 371.0 220.9 379.2 228.2 381.2 235.3 C 383.3 242.5 376.9 251.9 376.6 260.0 Z" stroke="#B18750" stroke-width="1.6" vector-effect="non-scaling-stroke"/>
<path d="M 404.8 260.0 C 405.7 272.4 413.7 287.3 410.3 298.6 C 406.8 310.0 394.9 322.9 384.2 328.0 C 373.4 333.0 358.0 325.9 345.7 328.8 C 333.4 331.7 321.6 346.3 310.5 345.5 C 299.4 344.6 285.8 333.2 279.2 323.8 C 272.5 314.3 276.9 299.3 270.4 288.7 C 263.9 278.1 241.1 270.0 240.2 260.0 C 239.4 250.0 258.1 238.4 265.4 228.9 C 272.8 219.4 276.6 210.1 284.5 203.0 C 292.4 195.8 302.5 189.4 313.1 185.9 C 323.6 182.3 338.0 178.3 347.9 181.7 C 357.8 185.2 363.1 199.6 372.6 206.6 C 382.0 213.7 399.3 215.2 404.6 224.1 C 410.0 232.9 403.9 247.6 404.8 260.0 Z" stroke="#B18750" stroke-width="1.6" vector-effect="non-scaling-stroke"/>
<path d="M 419.1 260.0 C 420.2 273.0 419.4 288.1 414.6 300.7 C 409.8 313.4 400.2 323.5 390.5 335.9 C 380.8 348.3 370.2 370.9 356.3 375.2 C 342.3 379.4 322.9 365.9 306.9 361.3 C 290.9 356.6 270.0 357.8 260.3 347.4 C 250.7 337.0 254.8 313.6 249.0 299.0 C 243.2 284.4 229.6 274.9 225.7 260.0 C 221.8 245.1 218.9 223.3 225.4 209.6 C 231.9 196.0 251.7 189.1 264.7 178.1 C 277.7 167.0 288.1 148.7 303.4 143.3 C 318.6 137.9 341.4 139.0 356.1 145.5 C 370.9 152.0 383.4 169.4 392.0 182.2 C 400.6 195.1 403.3 209.6 407.8 222.5 C 412.3 235.5 418.0 247.0 419.1 260.0 Z" stroke="#B18750" stroke-width="1.6" vector-effect="non-scaling-stroke"/>
<path d="M 447.0 260.0 C 449.5 276.8 449.9 299.0 442.5 314.2 C 435.1 329.3 416.6 339.6 402.5 350.9 C 388.4 362.3 374.9 375.7 357.9 382.2 C 340.9 388.6 319.3 392.1 300.4 389.5 C 281.6 386.9 257.8 379.7 244.9 366.8 C 231.9 353.8 229.2 329.4 222.8 311.6 C 216.4 293.8 206.0 277.0 206.5 260.0 C 207.0 243.0 220.3 228.6 225.9 209.9 C 231.5 191.1 227.3 158.6 240.1 147.3 C 253.0 136.0 282.7 147.4 303.1 142.3 C 323.6 137.1 346.8 111.3 362.8 116.5 C 378.8 121.7 388.4 157.2 399.1 173.3 C 409.9 189.4 419.3 198.7 427.2 213.2 C 435.2 227.6 444.4 243.2 447.0 260.0 Z" stroke="#B18750" stroke-width="1.6" vector-effect="non-scaling-stroke"/>
<path d="M 507.3 260.0 C 509.5 280.7 478.4 304.3 465.6 325.3 C 452.8 346.3 446.4 368.1 430.3 385.8 C 414.2 403.4 391.1 429.4 369.1 431.4 C 347.2 433.3 321.4 405.7 298.6 397.6 C 275.8 389.4 251.1 394.0 232.2 382.6 C 213.3 371.3 199.1 350.1 185.3 329.7 C 171.5 309.2 144.9 281.0 149.4 260.0 C 154.0 239.0 196.3 220.7 212.6 203.5 C 228.9 186.2 233.3 170.9 247.5 156.5 C 261.6 142.2 277.3 128.5 297.5 117.5 C 317.7 106.5 345.1 89.5 368.7 90.5 C 392.3 91.5 425.0 104.9 439.0 123.3 C 453.0 141.7 441.1 178.2 452.5 201.0 C 463.9 223.8 505.1 239.3 507.3 260.0 Z" stroke="#B18750" stroke-width="1.6" vector-effect="non-scaling-stroke"/>
<path d="M 519.6 260.0 C 525.8 287.0 529.9 326.7 516.9 350.0 C 503.9 373.4 465.6 383.3 441.7 400.1 C 417.8 416.9 400.0 440.0 373.6 450.9 C 347.1 461.7 309.5 473.1 283.2 465.2 C 256.8 457.3 237.5 423.3 215.7 403.3 C 193.9 383.4 166.0 369.5 152.3 345.6 C 138.5 321.7 134.3 289.1 133.1 260.0 C 131.9 230.9 127.9 190.7 145.0 170.9 C 162.0 151.1 210.5 152.5 235.4 141.3 C 260.3 130.1 270.6 118.7 294.3 103.6 C 318.0 88.5 351.2 50.7 377.7 51.0 C 404.2 51.2 436.5 82.3 453.5 105.1 C 470.5 127.9 468.9 162.0 479.9 187.8 C 491.0 213.6 513.5 233.0 519.6 260.0 Z" stroke="#B18750" stroke-width="1.6" vector-effect="non-scaling-stroke"/>
<path d="M 523.4 260.0 C 521.0 292.1 535.2 328.0 522.7 352.8 C 510.3 377.6 472.1 386.6 448.6 408.7 C 425.1 430.8 408.9 477.0 381.5 485.6 C 354.1 494.2 313.1 472.5 284.3 460.4 C 255.4 448.2 236.4 428.9 208.2 412.7 C 180.1 396.5 133.5 388.8 115.5 363.3 C 97.4 337.9 99.4 294.2 99.8 260.0 C 100.2 225.8 102.6 186.7 118.0 157.9 C 133.5 129.2 164.0 100.4 192.5 87.5 C 221.0 74.6 258.7 84.2 289.0 80.5 C 319.4 76.8 348.0 60.0 374.4 65.4 C 400.8 70.7 420.2 97.0 447.4 112.8 C 474.5 128.6 524.8 135.6 537.4 160.1 C 550.1 184.6 525.9 227.9 523.4 260.0 Z" stroke="#B18750" stroke-width="1.6" vector-effect="non-scaling-stroke"/>
<path d="M 527.1 260.0 C 535.5 293.1 565.9 335.7 561.6 371.6 C 557.4 407.4 531.7 456.8 501.5 475.0 C 471.3 493.2 419.1 472.5 380.4 481.0 C 341.7 489.4 301.4 532.9 269.3 525.8 C 237.2 518.7 214.5 464.8 187.9 438.2 C 161.3 411.5 131.0 395.8 109.7 366.1 C 88.3 336.4 54.1 292.7 59.6 260.0 C 65.0 227.3 117.4 194.9 142.4 169.6 C 167.3 144.4 185.4 126.7 209.0 108.3 C 232.7 89.9 256.8 65.4 284.2 59.2 C 311.5 53.1 341.7 67.6 373.1 71.2 C 404.5 74.9 449.6 64.3 472.6 81.2 C 495.7 98.1 502.2 142.9 511.3 172.7 C 520.4 202.5 518.7 226.9 527.1 260.0 Z" stroke="#B18750" stroke-width="1.6" vector-effect="non-scaling-stroke"/>
<path d="M 625.3 260.0 C 625.5 297.7 591.7 344.5 565.6 373.5 C 539.5 402.4 499.5 416.3 468.5 433.6 C 437.4 450.9 411.6 466.9 379.6 477.2 C 347.5 487.4 315.4 492.7 276.3 495.2 C 237.2 497.7 181.4 509.4 144.9 492.1 C 108.4 474.8 67.4 430.0 57.4 391.3 C 47.3 352.6 77.3 300.3 84.6 260.0 C 91.8 219.7 86.6 183.0 100.9 149.7 C 115.2 116.3 143.5 90.7 170.5 60.0 C 197.5 29.4 226.9 -26.0 262.9 -34.1 C 298.9 -42.1 350.4 -5.8 386.7 11.7 C 423.0 29.2 451.0 48.5 480.7 71.1 C 510.3 93.6 540.4 115.6 564.5 147.1 C 588.6 178.6 625.1 222.3 625.3 260.0 Z" stroke="#B18750" stroke-width="1.6" vector-effect="non-scaling-stroke"/>
<path d="M 616.7 260.0 C 621.9 298.1 600.4 343.8 583.1 381.9 C 565.7 420.0 544.3 464.5 512.3 488.6 C 480.2 512.7 433.2 512.1 390.8 526.4 C 348.5 540.8 294.2 586.7 258.2 574.6 C 222.2 562.6 205.2 486.5 175.0 454.4 C 144.8 422.2 103.9 414.1 77.2 381.7 C 50.6 349.3 17.7 301.8 15.1 260.0 C 12.6 218.2 43.7 173.9 61.8 130.9 C 80.0 87.8 88.9 22.7 123.9 1.5 C 158.8 -19.6 227.1 4.7 271.5 3.8 C 315.9 2.9 352.9 -11.8 390.2 -3.6 C 427.4 4.6 468.1 27.0 494.9 53.2 C 521.8 79.3 531.0 119.0 551.3 153.4 C 571.6 187.9 611.4 221.9 616.7 260.0 Z" stroke="#B18750" stroke-width="1.6" vector-effect="non-scaling-stroke"/>
<path d="M 629.5 260.0 C 625.5 301.6 589.4 331.9 577.0 379.0 C 564.6 426.0 584.1 508.9 555.1 542.3 C 526.1 575.6 452.0 574.9 402.8 579.1 C 353.6 583.3 306.9 576.7 259.9 567.3 C 212.8 557.9 162.1 548.2 120.5 522.7 C 78.9 497.1 31.1 457.8 10.2 414.0 C -10.6 370.2 -17.8 305.0 -4.7 260.0 C 8.5 215.0 71.8 192.4 88.9 143.9 C 106.0 95.4 67.8 -6.9 98.1 -30.8 C 128.4 -54.6 222.2 -4.2 270.8 0.7 C 319.4 5.5 351.5 -9.3 389.7 -1.5 C 427.8 6.3 464.5 25.4 499.7 47.2 C 535.0 69.0 579.6 93.9 601.2 129.4 C 622.9 164.8 633.6 218.4 629.5 260.0 Z" stroke="#B18750" stroke-width="1.6" vector-effect="non-scaling-stroke"/>
<path d="M 702.9 260.0 C 702.6 309.3 656.3 354.7 636.2 407.5 C 616.1 460.2 620.6 545.2 582.3 576.4 C 544.0 607.6 463.1 583.0 406.4 594.7 C 349.6 606.3 284.5 664.7 241.8 646.5 C 199.1 628.2 186.3 525.3 150.3 485.3 C 114.4 445.3 44.5 443.8 26.2 406.3 C 7.9 368.8 30.7 304.1 40.3 260.0 C 50.0 215.9 65.4 178.5 84.3 141.7 C 103.3 104.9 124.5 69.6 154.0 39.3 C 183.5 8.9 221.1 -28.9 261.5 -40.3 C 301.8 -51.8 348.6 -34.3 396.1 -29.5 C 443.6 -24.7 506.1 -34.9 546.4 -11.4 C 586.8 12.1 612.0 66.4 638.1 111.6 C 664.1 156.9 703.2 210.7 702.9 260.0 Z" stroke="#B18750" stroke-width="1.6" vector-effect="non-scaling-stroke"/>
<path d="M 642.4 260.0 C 639.7 316.4 692.6 384.2 673.3 425.3 C 654.0 466.4 569.3 470.0 526.7 506.7 C 484.2 543.3 464.8 624.7 417.9 645.3 C 371.1 665.9 296.2 649.3 245.5 630.3 C 194.8 611.3 156.8 565.5 113.6 531.3 C 70.5 497.2 12.7 470.6 -13.5 425.4 C -39.7 380.2 -56.4 309.0 -43.7 260.0 C -31.1 211.0 38.4 179.2 62.4 131.2 C 86.5 83.1 69.9 12.5 100.3 -28.0 C 130.7 -68.6 193.2 -100.4 245.1 -112.0 C 297.0 -123.6 353.9 -105.0 411.6 -97.7 C 469.4 -90.4 545.4 -98.9 591.7 -68.1 C 637.9 -37.3 680.6 32.4 689.1 87.1 C 697.5 141.8 645.0 203.6 642.4 260.0 Z" stroke="#B18750" stroke-width="1.6" vector-effect="non-scaling-stroke"/>
<path d="M 684.8 260.0 C 674.5 320.4 693.3 374.6 675.5 426.4 C 657.7 478.2 623.3 545.5 577.9 570.8 C 532.4 596.1 458.4 566.5 402.6 578.2 C 346.8 589.8 303.3 633.3 243.1 640.6 C 182.9 647.9 87.0 656.4 41.4 621.9 C -4.2 587.4 -13.0 493.9 -30.4 433.6 C -47.8 373.2 -57.6 320.5 -63.0 260.0 C -68.5 199.5 -88.9 120.5 -63.1 70.7 C -37.3 20.9 39.3 -12.8 91.7 -38.8 C 144.1 -64.8 195.0 -62.8 251.2 -85.2 C 307.4 -107.6 380.7 -186.7 428.8 -173.0 C 477.0 -159.4 488.6 -42.8 540.0 -3.3 C 591.4 36.1 713.3 19.9 737.4 63.8 C 761.5 107.7 695.1 199.6 684.8 260.0 Z" stroke="#B18750" stroke-width="1.6" vector-effect="non-scaling-stroke"/>
<path d="M 801.6 260.0 C 805.5 320.8 751.7 388.8 720.4 448.0 C 689.0 507.2 666.1 592.8 613.3 615.3 C 560.6 637.7 467.2 570.2 403.7 582.7 C 340.1 595.2 291.6 684.5 231.8 690.2 C 172.0 696.0 90.6 659.3 45.0 617.4 C -0.6 575.5 -20.4 498.6 -41.8 439.0 C -63.2 379.5 -89.3 316.7 -83.2 260.0 C -77.1 203.3 -32.5 150.7 -5.2 98.6 C 22.1 46.5 40.7 -9.7 80.6 -52.8 C 120.5 -95.8 174.9 -133.9 234.2 -159.7 C 293.6 -185.4 376.1 -221.3 436.6 -207.2 C 497.1 -193.1 553.8 -123.5 597.2 -75.1 C 640.7 -26.7 663.2 27.3 697.3 83.1 C 731.4 139.0 797.8 199.2 801.6 260.0 Z" stroke="#B18750" stroke-width="1.6" vector-effect="non-scaling-stroke"/>
<path d="M 905.6 470.0 C 905.9 474.3 909.4 480.1 907.8 483.4 C 906.2 486.7 899.3 487.2 895.8 489.8 C 892.3 492.5 890.6 497.1 886.7 499.4 C 882.8 501.7 876.3 505.0 872.3 503.7 C 868.3 502.5 866.5 495.0 862.6 491.9 C 858.6 488.8 851.2 488.6 848.9 485.0 C 846.6 481.3 848.6 474.9 848.7 470.0 C 848.8 465.1 847.1 458.7 849.6 455.4 C 852.2 452.1 860.3 453.0 864.2 450.2 C 868.0 447.3 869.1 440.1 872.8 438.5 C 876.6 437.0 882.3 439.4 886.7 440.6 C 891.1 441.8 896.1 442.9 899.3 445.8 C 902.5 448.6 904.9 453.5 906.0 457.5 C 907.0 461.5 905.3 465.7 905.6 470.0 Z" stroke="#B18750" stroke-width="1.6" vector-effect="non-scaling-stroke"/>
<path d="M 939.5 470.0 C 938.9 479.4 940.2 489.6 936.4 497.1 C 932.5 504.7 923.1 508.9 916.2 515.4 C 909.4 522.0 903.1 535.9 895.2 536.5 C 887.3 537.2 878.5 521.3 868.8 519.3 C 859.0 517.2 844.4 528.0 836.6 524.4 C 828.9 520.8 826.1 506.8 822.3 497.8 C 818.6 488.7 814.3 479.4 814.0 470.0 C 813.8 460.6 815.2 448.4 820.6 441.4 C 826.0 434.3 838.8 433.7 846.2 427.7 C 853.7 421.7 857.3 408.6 865.3 405.4 C 873.2 402.2 886.0 404.7 894.0 408.6 C 902.0 412.4 905.4 423.1 913.1 428.5 C 920.8 433.9 936.0 434.0 940.4 440.9 C 944.8 447.8 940.2 460.6 939.5 470.0 Z" stroke="#B18750" stroke-width="1.6" vector-effect="non-scaling-stroke"/>
<path d="M 964.7 470.0 C 963.8 484.0 970.6 500.8 964.3 510.6 C 958.0 520.4 937.1 518.6 926.9 528.9 C 916.8 539.1 914.8 565.5 903.2 571.8 C 891.7 578.2 872.6 570.4 857.8 567.2 C 843.0 563.9 823.3 562.2 814.6 552.1 C 805.8 541.9 807.9 519.6 805.3 506.0 C 802.7 492.3 798.1 481.5 799.0 470.0 C 799.9 458.5 805.8 447.3 810.9 436.7 C 816.0 426.2 820.9 413.6 829.6 406.8 C 838.3 400.0 851.2 401.2 863.1 396.2 C 875.1 391.1 889.6 375.6 901.3 376.7 C 913.0 377.8 922.2 394.4 933.6 402.8 C 945.0 411.1 964.4 415.6 969.6 426.8 C 974.8 438.1 965.6 456.0 964.7 470.0 Z" stroke="#B18750" stroke-width="1.6" vector-effect="non-scaling-stroke"/>
<path d="M 1012.8 470.0 C 1010.1 486.3 981.2 497.0 973.3 514.9 C 965.4 532.8 976.3 563.8 965.6 577.3 C 954.8 590.9 927.1 596.1 908.8 596.1 C 890.4 596.1 872.5 583.1 855.5 577.4 C 838.5 571.6 818.1 572.1 807.0 561.5 C 795.9 550.9 794.4 529.1 789.0 513.8 C 783.5 498.6 778.1 486.4 774.4 470.0 C 770.6 453.6 762.3 432.3 766.3 415.3 C 770.3 398.2 783.3 375.8 798.3 367.5 C 813.2 359.2 837.7 369.1 856.1 365.4 C 874.5 361.6 892.5 342.8 908.5 345.2 C 924.4 347.7 938.2 368.1 951.7 380.0 C 965.3 392.0 979.6 402.1 989.8 417.1 C 1000.0 432.1 1015.6 453.7 1012.8 470.0 Z" stroke="#B18750" stroke-width="1.6" vector-effect="non-scaling-stroke"/>
<path d="M 1014.4 470.0 C 1013.9 492.8 1029.5 520.8 1020.5 537.7 C 1011.6 554.6 977.9 554.8 960.8 571.4 C 943.7 587.9 936.5 631.8 918.1 636.7 C 899.6 641.6 871.9 609.2 850.2 600.7 C 828.5 592.2 807.4 595.6 787.7 585.7 C 768.1 575.8 745.3 560.5 732.2 541.2 C 719.0 521.9 707.4 493.0 708.9 470.0 C 710.3 447.0 729.1 423.8 741.0 403.1 C 753.0 382.3 763.1 358.9 780.6 345.4 C 798.2 331.9 823.4 328.4 846.2 321.9 C 869.0 315.4 897.6 299.3 917.4 306.3 C 937.1 313.3 946.9 348.1 964.6 363.9 C 982.3 379.6 1015.4 383.1 1023.7 400.8 C 1032.0 418.5 1015.0 447.2 1014.4 470.0 Z" stroke="#B18750" stroke-width="1.6" vector-effect="non-scaling-stroke"/>
<path d="M 1055.0 470.0 C 1054.4 496.9 1056.0 525.9 1045.9 549.9 C 1035.8 573.8 1015.3 596.8 994.5 613.6 C 973.8 630.5 947.8 642.6 921.3 651.0 C 894.8 659.4 864.4 666.9 835.7 664.1 C 807.0 661.2 770.6 652.4 749.3 633.9 C 728.0 615.3 719.5 580.2 708.0 552.8 C 696.5 525.5 679.5 497.1 680.4 470.0 C 681.4 442.9 699.1 413.2 713.8 390.0 C 728.6 366.7 748.7 350.1 768.9 330.7 C 789.1 311.3 808.8 284.7 835.2 273.6 C 861.5 262.5 900.4 255.2 927.0 263.9 C 953.7 272.6 974.7 304.9 995.1 325.7 C 1015.5 346.4 1039.7 364.2 1049.7 388.3 C 1059.6 412.4 1055.6 443.1 1055.0 470.0 Z" stroke="#B18750" stroke-width="1.6" vector-effect="non-scaling-stroke"/>
<path d="M 1082.8 470.0 C 1082.6 497.2 1063.4 527.1 1048.9 551.3 C 1034.4 575.5 1016.9 597.8 995.9 615.3 C 974.8 632.8 950.3 643.2 922.5 656.3 C 894.7 669.4 855.9 699.9 828.9 693.8 C 802.0 687.7 782.4 642.3 760.7 619.5 C 739.0 596.8 716.2 582.2 698.7 557.3 C 681.3 532.4 657.9 499.9 656.1 470.0 C 654.4 440.1 676.1 409.3 688.2 377.6 C 700.2 346.0 704.3 298.6 728.5 280.0 C 752.7 261.4 800.6 267.6 833.5 266.1 C 866.3 264.6 895.0 265.5 925.4 271.0 C 955.9 276.5 995.5 279.6 1016.2 299.2 C 1037.0 318.7 1038.9 359.7 1050.0 388.1 C 1061.1 416.6 1083.0 442.8 1082.8 470.0 Z" stroke="#B18750" stroke-width="1.6" vector-effect="non-scaling-stroke"/>
<path d="M 1138.4 470.0 C 1141.2 508.5 1150.4 563.6 1127.9 589.4 C 1105.3 615.1 1034.2 599.2 1003.3 624.6 C 972.3 650.0 972.5 723.9 942.0 741.7 C 911.5 759.5 851.6 750.5 820.3 731.4 C 789.1 712.3 784.7 651.6 754.6 627.3 C 724.4 603.0 663.1 612.0 639.6 585.8 C 616.1 559.6 605.2 504.7 613.3 470.0 C 621.5 435.3 673.2 414.4 688.4 377.7 C 703.6 341.1 681.2 271.8 704.6 250.1 C 728.1 228.4 791.3 249.3 829.2 247.6 C 867.2 246.0 897.7 236.2 932.4 240.2 C 967.2 244.2 1008.2 252.1 1038.0 271.8 C 1067.8 291.6 1094.5 325.6 1111.2 358.6 C 1128.0 391.7 1135.7 431.5 1138.4 470.0 Z" stroke="#B18750" stroke-width="1.6" vector-effect="non-scaling-stroke"/>
<path d="M 1103.0 470.0 C 1110.1 511.0 1163.2 565.1 1156.5 603.1 C 1149.7 641.2 1100.1 684.7 1062.2 698.5 C 1024.4 712.3 969.9 679.5 929.3 686.1 C 888.8 692.7 852.4 742.4 818.8 738.1 C 785.2 733.9 764.1 683.0 728.0 660.6 C 691.9 638.2 627.8 635.5 602.3 603.7 C 576.7 572.0 565.8 510.4 574.6 470.0 C 583.3 429.6 632.8 397.9 654.6 361.5 C 676.5 325.0 677.9 276.9 705.5 251.2 C 733.1 225.5 781.7 211.1 820.0 207.3 C 858.3 203.4 897.9 218.6 935.2 228.1 C 972.6 237.6 1014.4 242.6 1044.2 264.1 C 1073.9 285.7 1104.0 323.1 1113.8 357.4 C 1123.6 391.7 1095.8 429.0 1103.0 470.0 Z" stroke="#B18750" stroke-width="1.6" vector-effect="non-scaling-stroke"/>
<path d="M 1181.7 470.0 C 1172.9 512.5 1132.3 539.1 1118.5 584.9 C 1104.7 630.6 1127.1 712.6 1099.0 744.7 C 1071.0 776.8 998.2 772.8 950.2 777.4 C 902.2 782.0 859.0 778.0 811.0 772.4 C 762.9 766.7 688.4 775.6 661.8 743.6 C 635.3 711.5 670.6 625.7 651.4 580.1 C 632.3 534.5 549.1 507.8 546.8 470.0 C 544.6 432.2 610.7 388.9 638.0 353.4 C 665.2 318.0 680.6 283.5 710.5 257.5 C 740.5 231.5 777.4 215.0 817.8 197.3 C 858.1 179.5 906.0 151.2 952.8 151.1 C 999.5 150.9 1061.8 166.6 1098.2 196.4 C 1134.6 226.1 1157.4 284.1 1171.3 329.7 C 1185.3 375.3 1190.5 427.5 1181.7 470.0 Z" stroke="#B18750" stroke-width="1.6" vector-effect="non-scaling-stroke"/>
<path d="M 1152.3 470.0 C 1145.9 523.1 1201.7 575.9 1191.5 620.0 C 1181.2 664.1 1132.4 714.0 1090.8 734.4 C 1049.3 754.7 987.3 742.2 942.1 742.1 C 896.9 742.0 870.3 728.7 819.8 733.6 C 769.4 738.6 677.3 792.5 639.5 771.6 C 601.7 750.7 603.8 658.4 593.2 608.1 C 582.5 557.9 580.4 518.4 575.4 470.0 C 570.5 421.6 552.8 367.8 563.5 317.6 C 574.3 267.4 598.5 193.3 639.9 169.0 C 681.3 144.7 757.6 184.5 811.9 171.7 C 866.3 159.0 923.0 82.7 966.2 92.5 C 1009.3 102.3 1027.0 195.7 1071.0 230.6 C 1114.9 265.4 1216.4 261.6 1229.9 301.5 C 1243.5 341.4 1158.7 416.9 1152.3 470.0 Z" stroke="#B18750" stroke-width="1.6" vector-effect="non-scaling-stroke"/>
<path d="M 1237.8 470.0 C 1232.3 518.6 1181.4 552.1 1166.2 607.8 C 1151.1 663.6 1179.1 759.7 1146.9 804.6 C 1114.7 849.5 1032.1 869.0 973.0 877.3 C 913.9 885.6 850.0 869.5 792.2 854.7 C 734.4 839.9 655.6 831.2 626.1 788.3 C 596.7 745.5 639.4 650.4 615.6 597.3 C 591.7 544.3 484.8 513.3 483.0 470.0 C 481.3 426.7 574.6 382.4 605.0 337.6 C 635.4 292.7 632.8 237.1 665.4 200.8 C 697.9 164.6 752.4 128.2 800.2 120.3 C 848.0 112.4 900.9 142.9 952.3 153.4 C 1003.6 163.9 1067.4 156.3 1108.5 183.5 C 1149.5 210.7 1177.2 268.8 1198.7 316.5 C 1220.3 364.3 1243.2 421.4 1237.8 470.0 Z" stroke="#B18750" stroke-width="1.6" vector-effect="non-scaling-stroke"/>
<path d="M 1272.7 470.0 C 1256.1 523.9 1186.2 551.1 1165.9 607.7 C 1145.5 664.2 1185.6 777.0 1150.6 809.3 C 1115.5 841.6 1016.4 789.8 955.7 801.5 C 895.0 813.3 831.5 894.5 786.4 880.1 C 741.3 865.6 722.5 757.3 684.9 714.6 C 647.3 671.9 594.9 664.5 560.8 623.7 C 526.8 582.9 490.2 525.9 480.5 470.0 C 470.8 414.1 483.2 347.2 502.8 288.3 C 522.4 229.5 549.4 147.6 598.3 116.7 C 647.2 85.9 736.2 101.9 796.3 103.2 C 856.4 104.5 906.8 111.3 958.8 124.7 C 1010.9 138.1 1057.5 156.8 1108.5 183.4 C 1159.6 210.1 1237.8 236.8 1265.1 284.5 C 1292.5 332.3 1289.2 416.1 1272.7 470.0 Z" stroke="#B18750" stroke-width="1.6" vector-effect="non-scaling-stroke"/>
</svg>